<svg xmlns="http://www.w3.org/2000/svg" viewBox="0 0 370 322.06"><defs><style>.cls-1{fill:#e6e5e5}.cls-2{fill:#313131}.cls-3{fill:#fff}.cls-4{fill:none;stroke:#fff;stroke-miterlimit:10;stroke-width:2.5px}.cls-5{fill:#cccbca}.cls-6{fill:#c4c4c4}</style></defs><title>Zasób 1</title><g id="Warstwa_2" data-name="Warstwa 2"><g id="Layer_1" data-name="Layer 1"><path class="cls-1" d="M214.73 139.04L39.13 177.2 63.11 0l151.62 139.04zM153.99 177.82l214.73-54.36-96.76 198.6-117.97-144.24z"/><path class="cls-2" d="M370 271.8L183.62 7.75 0 271.81l370-.01z"/><path class="cls-3" d="M205 110.75v-4.13l-3-1a17.21 17.21 0 0 0-.72-2.7l2.11-2.41-2.07-3.58-3.15.62q-.46-.54-1-1t-1-1l.62-3.15-3.58-2.07-2.41 2.11a17.29 17.29 0 0 0-2.69-.72l-1-3h-4.14l-1 3a17.39 17.39 0 0 0-2.7.72l-2.41-2.11-3.58 2.07.62 3.15q-.54.46-1 1c-.33.33-.65.68-1 1l-3.15-.62-2.07 3.58 2.11 2.41a17.19 17.19 0 0 0-.72 2.69l-3 1v4.14l3 1a17.12 17.12 0 0 0 .72 2.69l-2.11 2.41 2.07 3.58 3.14-.62q.46.54 1 1t1 1l-.64 3.14 3.59 2.07 2.41-2.11a17.14 17.14 0 0 0 2.69.72l1 3h4.14l1-3a17 17 0 0 0 2.69-.72l2.41 2.11 3.58-2.07-.62-3.14q.54-.46 1-1c.33-.33.65-.68 1-1l3.15.62 2.07-3.58-2.11-2.41a17.13 17.13 0 0 0 .72-2.69zM185 119a10.33 10.33 0 1 1 10.33-10.33A10.32 10.32 0 0 1 185 119z"/><path class="cls-4" d="M233.06 184.22l-48.42-41.66-47.7 41.66"/><path d="M187.1 233.19a2.72 2.72 0 0 1-2.72 2.72h-76.69a2.72 2.72 0 0 1-2.72-2.72v-49a2.71 2.71 0 0 1 2.72-2.71h76.69a2.71 2.71 0 0 1 2.72 2.71z"/><path class="cls-3" d="M196.28 236a.49.49 0 0 0-.33-.13H96.12a.47.47 0 0 0-.32.13.46.46 0 0 0-.14.33v1.14a8 8 0 0 0 6 2.76h88.67a8 8 0 0 0 6-2.76v-1.14a.48.48 0 0 0-.05-.33zM109.25 185.66h73.58v45.98h-73.58z"/><path d="M112.31 188.23h20.35v40.64h-20.35z"/><path class="cls-1" d="M135.86 188.23h44.39v6.1h-44.39zM135.85 222.66h44.4v2.01h-44.4zM135.85 227.06h44.4v2.01h-44.4zM135.86 208.66h20.36v11.61h-20.36zM159.89 208.66h20.36v11.61h-20.36z"/><path class="cls-5" d="M135.85 196.72h44.4v9.55h-44.4z"/><path class="cls-6" d="M261.8 183.1h-6.27v6.27h12.55a6.27 6.27 0 0 0-6.28-6.27z"/><path class="cls-3" d="M261.8 183.1a6.27 6.27 0 0 0-6.27 6.27v44.48a6.27 6.27 0 0 1-6.27 6.27h-34.13v-50.74a6.28 6.28 0 0 1 6.28-6.27z"/><path class="cls-6" d="M243 233.86h-40.4a6.27 6.27 0 0 0 6.27 6.27h40.39a6.27 6.27 0 0 1-6.26-6.27z"/><path d="M222.47 196.84h22.86v2.33h-22.86zM222.47 203.4h22.86v2.33h-22.86zM222.47 209.97h22.86v2.33h-22.86z"/></g></g></svg>